<svg width="273" height="256" viewBox="0 0 273 256" fill="none" xmlns="http://www.w3.org/2000/svg">
<rect width="273" height="256" fill="#E5E5E5"/>
<g clip-path="url(#clip0_0_1)">
<rect width="411" height="5986" transform="translate(-60 -2698)" fill="#1F2E35"/>
<ellipse cx="136" cy="127.554" rx="136" ry="127.554" transform="matrix(-1 0 0 1 272.869 0.890381)" fill="#F3F3F3"/>
<path fill-rule="evenodd" clip-rule="evenodd" d="M250.738 184.181C250.796 184.147 251.162 184.63 251.703 185.581C252.247 186.53 252.923 187.97 253.552 189.829C254.84 193.534 255.649 199.003 255.169 204.967C254.694 210.931 253.315 216.166 252.252 219.892C251.164 223.62 250.363 225.882 250.225 225.844C250.072 225.802 250.613 223.461 251.506 219.697C252.376 215.933 253.617 210.726 254.082 204.885C254.549 199.045 253.884 193.73 252.815 190.055C251.777 186.362 250.566 184.27 250.738 184.181Z" fill="white"/>
<path fill-rule="evenodd" clip-rule="evenodd" d="M254.411 154.334C254.479 154.304 254.922 155.114 255.661 156.609C256.399 158.103 257.436 160.281 258.663 162.998C261.097 168.433 264.373 176.041 266.75 184.874C267.918 189.292 268.714 193.587 269.117 197.532C269.523 201.476 269.565 205.059 269.361 208.049C269.165 211.041 268.787 213.442 268.423 215.075C268.064 216.711 267.779 217.592 267.715 217.577C267.513 217.538 268.403 213.938 268.592 208.014C268.826 202.102 268.05 193.888 265.696 185.155C263.346 176.418 260.204 168.806 257.955 163.304C256.823 160.551 255.907 158.322 255.273 156.782C254.654 155.235 254.342 154.365 254.411 154.334Z" fill="white"/>
<path fill-rule="evenodd" clip-rule="evenodd" d="M118.425 189.365C118.551 189.501 117.314 190.68 115.71 192.87C115.311 193.42 114.879 194.021 114.474 194.709C114.031 195.37 113.646 196.13 113.218 196.914C112.421 198.513 111.665 200.329 111.081 202.307C110.523 204.292 110.198 206.232 110.022 208.01C109.969 208.901 109.892 209.75 109.914 210.545C109.892 211.343 109.938 212.083 109.982 212.761C110.176 215.468 110.597 217.125 110.418 217.173C110.309 217.21 109.617 215.61 109.215 212.84C109.119 212.148 109.027 211.387 109.01 210.564C108.948 209.742 108.992 208.863 109.02 207.936C109.145 206.09 109.453 204.066 110.034 202.005C110.638 199.951 111.453 198.074 112.33 196.443C112.799 195.643 113.228 194.875 113.718 194.213C114.17 193.524 114.653 192.929 115.103 192.394C116.916 190.262 118.353 189.276 118.425 189.365Z" fill="white"/>
<path fill-rule="evenodd" clip-rule="evenodd" d="M121.327 198.921C121.419 199.067 120.73 199.594 119.83 200.602C119.374 201.099 118.894 201.744 118.422 202.492C117.969 203.252 117.536 204.125 117.196 205.086C116.87 206.053 116.674 207.007 116.562 207.886C116.473 208.765 116.453 209.568 116.505 210.242C116.592 211.59 116.811 212.43 116.648 212.489C116.531 212.538 116.041 211.769 115.741 210.344C115.584 209.634 115.52 208.764 115.561 207.801C115.624 206.84 115.808 205.787 116.165 204.731C116.535 203.679 117.04 202.737 117.582 201.941C118.143 201.157 118.73 200.513 119.291 200.05C120.405 199.112 121.265 198.809 121.327 198.921Z" fill="white"/>
<path fill-rule="evenodd" clip-rule="evenodd" d="M81.0399 109.869C81.0962 109.82 81.5843 110.3 82.4216 111.216C82.847 111.669 83.3494 112.24 83.8811 112.944C84.4184 113.641 85.0644 114.416 85.6708 115.347C85.9835 115.806 86.312 116.287 86.6533 116.789C86.9914 117.294 87.2978 117.846 87.639 118.404C88.3374 119.512 88.9636 120.763 89.6445 122.068C90.9302 124.714 92.1596 127.718 93.1389 130.975C94.0865 134.241 94.6881 137.431 95.0476 140.351C95.1849 141.817 95.3389 143.207 95.3548 144.516C95.3715 145.17 95.4143 145.8 95.4048 146.408C95.3913 147.015 95.377 147.596 95.3643 148.152C95.3611 149.265 95.2397 150.265 95.1683 151.143C95.104 152.023 94.9929 152.774 94.8818 153.385C94.677 154.61 94.5286 155.278 94.454 155.268C94.2619 155.242 94.6238 152.529 94.5937 148.144C94.5834 147.596 94.5738 147.023 94.5635 146.424C94.5508 145.826 94.4873 145.206 94.4516 144.564C94.3977 143.277 94.2119 141.913 94.0508 140.476C93.6421 137.613 93.0231 134.49 92.0929 131.284C91.131 128.088 89.9541 125.13 88.7406 122.504C88.0954 121.21 87.5089 119.964 86.8557 118.855C86.5359 118.296 86.2517 117.741 85.9382 117.233C85.6216 116.726 85.3184 116.238 85.0287 115.773C82.6708 112.076 80.8915 109.995 81.0399 109.869Z" fill="white"/>
<path fill-rule="evenodd" clip-rule="evenodd" d="M93.3869 114.978C93.4797 114.895 94.7321 116.067 96.3249 118.325C97.1265 119.449 97.9709 120.865 98.7931 122.499C99.5915 124.143 100.353 126.011 100.961 128.034C101.551 130.064 101.926 132.046 102.149 133.861C102.346 135.679 102.407 137.326 102.345 138.706C102.234 141.466 101.819 143.13 101.697 143.111C101.522 143.09 101.662 141.405 101.573 138.705C101.538 137.356 101.399 135.753 101.153 133.992C100.881 132.233 100.488 130.315 99.9161 128.344C99.3249 126.378 98.613 124.554 97.886 122.93C97.1344 121.317 96.3805 119.897 95.6773 118.744C94.2845 116.43 93.2519 115.091 93.3869 114.978Z" fill="white"/>
<path fill-rule="evenodd" clip-rule="evenodd" d="M50.1506 204.206L49.2014 202.268L22.7764 222.459L34.3048 241.135L60.6092 218.956L50.1506 204.206Z" fill="#22343D"/>
<path fill-rule="evenodd" clip-rule="evenodd" d="M23.8828 222.891L34.0105 240.405L34.6581 240.116L25.6391 223.74L23.8828 222.891Z" fill="#D7D4D4"/>
<path fill-rule="evenodd" clip-rule="evenodd" d="M49.6277 203.823L23.8828 222.89C23.8828 222.89 23.9907 223.3 24.6296 223.552C25.2693 223.805 25.6391 223.74 25.6391 223.74L52.7054 205.216C52.7054 205.216 51.1451 204.853 50.5793 204.431C50.0126 204.007 49.6277 203.823 49.6277 203.823Z" fill="#F5F3F3"/>
<path fill-rule="evenodd" clip-rule="evenodd" d="M53.3678 204.468L25.1562 223.312L34.3188 240.677L35.795 243.082L64.0073 222.202C64.0073 222.202 61.0359 217.767 59.2518 215.089C57.4677 212.411 53.9654 206.096 53.7749 205.691C53.5836 205.287 53.3678 204.468 53.3678 204.468Z" fill="#FAB005"/>
<path fill-rule="evenodd" clip-rule="evenodd" d="M18.6017 43.8582C18.6017 43.8582 16.9264 45.0177 17.7637 46.951C18.6017 48.8844 22.2747 54.6193 27.2365 54.4257C27.4397 54.4185 20.9858 43.8582 20.9858 43.8582H18.6017Z" fill="#22343D"/>
<path fill-rule="evenodd" clip-rule="evenodd" d="M11.0111 149.584C11.0111 149.584 4.80645 144.041 2.81997 145.034C0.393019 146.247 -13.4981 159.857 -12.9552 166.269C-12.7322 168.896 -9.6751 166.646 -4.22755 160.995C1.22158 155.345 8.0826 157.766 8.0826 157.766L11.0111 149.584Z" fill="#22343D"/>
<path fill-rule="evenodd" clip-rule="evenodd" d="M26.087 158.932L18.5966 154.438C18.5966 154.438 -0.819011 172.64 2.21428 175.067C4.51504 176.908 5.86741 175.257 11.3157 169.606C16.7633 163.957 23.6656 167.206 23.6656 167.206L26.087 158.932Z" fill="#22343D"/>
<path fill-rule="evenodd" clip-rule="evenodd" d="M71.8422 99.0464L73.2469 118.993L42.0664 110.869L71.8422 99.0464Z" fill="#F3A683"/>
<path fill-rule="evenodd" clip-rule="evenodd" d="M42.0664 111.556C42.0664 111.556 69.3407 113.275 72.9724 112.063C72.9724 112.063 78.3024 164.426 68.8184 170.075C59.3336 175.726 38.0498 167.452 38.0498 167.452L43.7966 156.152L56.1869 155.345V135.166L55.298 135.368L42.0664 111.556Z" fill="#112129"/>
<path fill-rule="evenodd" clip-rule="evenodd" d="M7.8775 147.273C7.8775 147.273 1.01728 150.099 3.23709 156.96C3.23709 156.96 26.655 175.323 38.0501 171.085C44.4342 168.711 51.292 150.598 56.0896 135.123L72.9727 112.063C72.9727 112.063 65.0101 112.461 62.3538 112.451C57.2768 112.432 42.0667 111.556 42.0667 111.556C42.0667 111.556 34.1216 153.126 31.2907 154.134C28.4598 155.142 7.8775 147.273 7.8775 147.273Z" fill="#22343D"/>
<path fill-rule="evenodd" clip-rule="evenodd" d="M48.4219 59.4178C48.4219 59.4178 64.7677 44.0812 67.5923 40.0447C70.4168 36.009 76.4723 22.4891 83.9365 16.839L80.3048 9.17074C80.3048 9.17074 82.5254 7.96041 83.9365 11.1882C83.9365 11.1882 89.1824 0.696094 90.3935 0.896889C91.6054 1.09848 87.9729 8.96915 87.9729 8.96915C87.9729 8.96915 93.0189 1.70404 94.4308 1.90642C95.8419 2.10801 90.7983 10.0731 90.7983 10.0731C90.7983 10.0731 96.4474 3.52071 97.2553 4.32786C98.0625 5.135 92.8157 10.0731 92.8157 10.0731C92.8157 10.0731 98.4656 6.82946 99.0712 7.89851C99.6767 8.96915 93.4213 11.7938 93.4213 11.7938C93.4213 11.7938 92.8157 16.4351 88.9824 18.4525C88.9824 18.4525 81.3913 38.9621 74.5303 45.6209L52.4901 68.5274L48.4219 59.4178Z" fill="#FFC6B2"/>
<path fill-rule="evenodd" clip-rule="evenodd" d="M28.9097 67.3665C28.9097 67.3665 13.4218 83.5681 9.35998 86.3546C5.29734 89.1404 -8.27788 95.0698 -13.9968 102.482L-21.6309 98.7785C-21.6309 98.7785 -22.8618 100.986 -19.6468 102.429C-19.6468 102.429 -30.1887 107.577 -29.9974 108.79C-29.8077 110.003 -21.9039 106.444 -21.9039 106.444C-21.9039 106.444 -29.2157 111.422 -29.0268 112.836C-28.8379 114.249 -20.8269 109.279 -20.8269 109.279C-20.8269 109.279 -27.4316 114.867 -26.6316 115.682C-25.8332 116.497 -20.8452 111.298 -20.8452 111.298C-20.8452 111.298 -24.142 116.917 -23.0769 117.532C-22.0134 118.147 -19.1301 111.918 -19.1301 111.918C-19.1301 111.918 -14.4841 111.358 -12.4294 107.542C-12.4294 107.542 6.99652 99.8126 13.7202 93.0142L37.8945 75.8847L28.9097 67.3665Z" fill="#FFC6B2"/>
<path fill-rule="evenodd" clip-rule="evenodd" d="M34.716 60.9092L26.8828 68.5775L28.8693 77.222C28.8693 77.222 36.5867 95.7498 37.7533 100.27C39.5668 107.298 36.6335 118.015 36.6335 118.015C36.6335 118.015 49.7166 116.929 61.6212 116.525C73.525 116.121 77.4194 112.286 77.4194 112.286C77.4194 112.286 67.0981 77.9101 59.972 68.3005C52.8452 58.6925 50.2531 55.6846 50.2531 55.6846L39.7604 57.9782L34.716 60.9092Z" fill="#FAB005"/>
<path fill-rule="evenodd" clip-rule="evenodd" d="M57.7055 67.1674L65.8673 61.9522C65.8673 61.9522 67.1141 56.3649 57.2714 49.7744L45.7295 57.007L57.7055 67.1674Z" fill="#22343D"/>
<path fill-rule="evenodd" clip-rule="evenodd" d="M28.533 67.9711C24.0585 68.5989 15.8816 79.9394 14.9697 79.918C14.9697 79.918 20.7244 89.3093 25.2831 89.6141C25.2831 89.6141 45.3439 65.6132 28.533 67.9711Z" fill="#22343D"/>
<path fill-rule="evenodd" clip-rule="evenodd" d="M44.3288 60.592C44.3288 60.592 37.8249 55.7324 38.0503 53.7951C38.1075 53.307 39.009 52.515 39.2432 51.8118C40.5043 48.0284 34.4242 38.28 30.6885 36.2252C27.7497 34.6093 29.0377 34.4665 22.8529 38.1419C16.6681 41.8173 20.1918 48.1729 22.9537 51.4602C25.5648 54.5673 28.5552 55.8983 31.2456 56.1229L35.071 64.6198L44.3288 60.592Z" fill="#FFC6B2"/>
<path fill-rule="evenodd" clip-rule="evenodd" d="M32.5924 67.3378C31.3622 64.3203 33.6916 60.5195 37.7955 58.8457C41.901 57.1711 46.224 58.26 47.4565 61.2759C48.6858 64.2925 44.5557 68.8275 42.2502 69.768C39.9447 70.7084 33.8217 70.3537 32.5924 67.3378Z" fill="#FFC6B2"/>
<path fill-rule="evenodd" clip-rule="evenodd" d="M22.9539 51.4604C22.9539 51.4604 20.8444 51.3437 20.6103 52.7493C20.3754 54.1556 24.4769 54.1556 26.0007 53.1009L22.9539 51.4604Z" fill="#FFC6B2"/>
<path fill-rule="evenodd" clip-rule="evenodd" d="M24.009 52.7493C23.6082 50.2088 20.9011 48.3199 21.036 45.8445C22.3336 45.8549 23.1669 44.2477 22.5765 42.8739C22.3439 42.3342 21.9503 41.8723 21.6987 41.3398C21.4479 40.808 21.3812 40.1112 21.7661 39.8104C21.9487 39.6683 22.1955 39.6437 22.432 39.6199C24.3558 39.4223 27.6518 39.9993 29.4224 39.3429C31.1081 38.7183 32.9144 37.5032 32.739 35.4381C32.5858 33.6397 30.9978 32.1818 29.5391 31.0802C28.7034 30.4484 26.3153 28.7968 25.4145 28.9468C24.0391 29.1754 23.7058 31.0103 23.6066 32.5461C22.6447 31.6302 21.2257 31.777 20.3892 32.5223C19.5527 33.2675 19.1567 34.4516 18.7924 35.5945C18.4273 36.7381 18.0408 37.9255 17.2154 38.685C16.4464 39.3929 15.2297 39.9286 15.3892 41.1326C15.5789 42.5675 17.4535 43.0779 18.3202 44.3017C18.1067 44.0017 17.9257 45.9176 18.0487 46.2422C18.4186 47.2207 19.3416 47.8684 20.009 48.6168C21.4304 50.212 22.1257 51.8184 24.009 52.7493Z" fill="#22343D"/>
<path fill-rule="evenodd" clip-rule="evenodd" d="M35.7926 46.9404L30.9863 49.4262C30.9863 49.4262 36.7593 53.6167 35.7926 46.9404Z" fill="white"/>
<path fill-rule="evenodd" clip-rule="evenodd" d="M29.1801 47.9257C29.4428 48.4241 29.054 49.1447 28.3119 49.5352C27.5699 49.9257 26.7556 49.8384 26.4929 49.34C26.231 48.8415 26.6191 48.1217 27.3611 47.7304C28.104 47.34 28.9175 47.4273 29.1801 47.9257Z" fill="#FFB2A0"/>
<path fill-rule="evenodd" clip-rule="evenodd" d="M36.1987 43.1317C36.4614 43.6301 36.0725 44.3508 35.3305 44.7413C34.5884 45.1317 33.7741 45.0444 33.5114 44.546C33.2495 44.0476 33.6376 43.327 34.3797 42.9365C35.1225 42.546 35.936 42.6333 36.1987 43.1317Z" fill="#FFB2A0"/>
<path fill-rule="evenodd" clip-rule="evenodd" d="M32.4376 46.7641C32.4153 46.7363 32.505 46.6181 32.713 46.4681C32.9114 46.3149 33.2566 46.1498 33.513 45.8736C33.7669 45.6061 33.8582 45.0482 33.4693 44.9696C33.0653 44.8323 32.6066 45.2958 32.0804 45.7363C31.9503 45.8442 31.8217 45.9514 31.6939 46.0569C31.5749 46.1665 31.3241 46.3268 31.0638 46.2942C30.5678 46.2141 30.3566 45.8831 30.1662 45.6617C29.7852 45.1728 29.5503 44.6609 29.4201 44.218C29.1622 43.3228 29.2781 42.745 29.34 42.7498C29.4265 42.7458 29.4551 43.3014 29.7828 44.0887C29.9479 44.48 30.1947 44.9244 30.5543 45.3442C30.7297 45.5569 30.9503 45.7554 31.1074 45.7617C31.1733 45.7649 31.2249 45.7427 31.3487 45.6387C31.4749 45.5331 31.6019 45.426 31.7304 45.3181C31.9955 45.1038 32.2249 44.8871 32.528 44.6855C32.8225 44.4871 33.2423 44.3617 33.6185 44.4895C34.0201 44.595 34.2558 45.0633 34.186 45.3887C34.1407 45.7204 33.9756 45.9649 33.7883 46.1435C33.3923 46.4744 33.0384 46.5546 32.8153 46.6546C32.5868 46.7411 32.4614 46.795 32.4376 46.7641Z" fill="#22343D"/>
<path fill-rule="evenodd" clip-rule="evenodd" d="M31.2451 56.1231C31.2451 56.1231 34.3109 56.1406 35.9744 55.116C35.9744 55.116 34.5673 56.8445 31.7515 57.2922L31.2451 56.1231Z" fill="#FFA192"/>
<path fill-rule="evenodd" clip-rule="evenodd" d="M32.5751 42.374C32.5474 42.5255 32.1188 42.5724 31.6656 42.7724C31.2061 42.9581 30.8744 43.2335 30.7466 43.1478C30.6156 43.0787 30.8323 42.5311 31.4529 42.27C32.0728 42.0073 32.6156 42.2311 32.5751 42.374Z" fill="#22343D"/>
<path fill-rule="evenodd" clip-rule="evenodd" d="M26.5663 46.3152C26.4505 46.2295 26.6322 45.7359 27.0735 45.2414C27.5203 44.7366 28.0909 44.5684 28.1512 44.7097C28.2147 44.847 27.8671 45.1668 27.4759 45.6105C27.0782 46.0525 26.6917 46.4089 26.5663 46.3152Z" fill="#22343D"/>
<path fill-rule="evenodd" clip-rule="evenodd" d="M24.2376 45.5534C23.9892 45.3692 23.7956 44.5811 24.7463 43.5192C25.7058 42.4335 26.7781 42.6248 26.9066 42.9264C27.0447 43.2224 26.6876 43.6438 25.8455 44.5986C24.9908 45.5502 24.5067 45.7549 24.2376 45.5534Z" fill="#22343D"/>
<path fill-rule="evenodd" clip-rule="evenodd" d="M29.2847 41.3705C29.1474 41.1133 29.299 40.3649 30.5355 39.8435C31.7894 39.3046 32.6251 39.899 32.6132 40.2078C32.6108 40.5149 32.1386 40.73 31.037 41.2046C29.9275 41.6705 29.4331 41.6506 29.2847 41.3705Z" fill="#22343D"/>
<path fill-rule="evenodd" clip-rule="evenodd" d="M293.021 48.8152C293.102 48.8954 291.77 50.3938 289.006 52.0255C286.277 53.6557 281.983 55.2716 277.043 55.3081C272.103 55.3446 267.785 53.7922 265.032 52.2025C262.246 50.612 260.892 49.1327 260.971 49.0509C261.086 48.9057 262.6 50.1533 265.391 51.5192C268.154 52.8906 272.319 54.2517 277.034 54.2176C281.751 54.1819 285.895 52.7597 288.638 51.3477C291.407 49.9406 292.904 48.6708 293.021 48.8152Z" fill="#22343D"/>
<path fill-rule="evenodd" clip-rule="evenodd" d="M262.886 46.5517C262.81 46.7175 261.336 46.1056 258.851 45.5517C257.613 45.2596 256.111 45.0342 254.438 44.8263C252.759 44.6405 250.902 44.4929 248.942 44.3532C246.981 44.2159 245.104 44.058 243.399 43.8469C241.695 43.6207 240.163 43.3516 238.901 43.0104C236.368 42.3493 234.933 41.5667 234.983 41.4564C235.049 41.2897 236.557 41.8048 239.066 42.2564C240.318 42.4953 241.828 42.6802 243.51 42.8477C245.195 43.0016 247.057 43.1278 249.021 43.2659C250.986 43.4056 252.866 43.5858 254.569 43.8302C256.271 44.0977 257.798 44.4088 259.047 44.8056C261.556 45.5715 262.942 46.4477 262.886 46.5517Z" fill="#22343D"/>
<mask id="mask0_0_1" style="mask-type:luminance" maskUnits="userSpaceOnUse" x="223" y="4" width="99" height="49">
<path fill-rule="evenodd" clip-rule="evenodd" d="M223.052 4.50513H322V52.9846H223.052V4.50513Z" fill="white"/>
</mask>
<g mask="url(#mask0_0_1)">
<path fill-rule="evenodd" clip-rule="evenodd" d="M233.005 14.3246C237.714 13.3254 242.593 14.1857 247.342 14.977C252.091 15.7683 257.021 16.4818 261.664 15.2072C270.046 12.9064 276.41 4.43728 285.102 4.50554C288.682 4.53332 292.055 6.06189 295.543 6.87063C299.873 7.87539 304.384 7.76746 308.77 8.48413C313.157 9.2008 317.689 10.9651 320.168 14.6548C323.11 19.0334 322.303 25.2096 319.217 29.4874C316.13 33.766 311.188 36.3708 306.123 37.847C302.591 38.8763 298.827 39.4716 295.77 41.52C292.678 43.5922 290.659 46.9272 287.778 49.2835C280.549 55.1955 269.298 53.501 261.831 47.893C259.955 46.4843 258.216 44.8494 256.108 43.8184C247.534 39.6216 235.204 45.1772 227.82 37.5414C220.321 29.7866 221.39 16.7881 233.005 14.3246Z" fill="#22343D"/>
</g>
<path fill-rule="evenodd" clip-rule="evenodd" d="M230.651 164.507C230.651 164.507 238.507 181.345 239.426 178.227C240.343 175.108 240.039 167.62 239.547 166.551C239.053 165.482 235.842 160.759 235.842 160.759L230.651 164.507Z" fill="#FFB2A0"/>
<path fill-rule="evenodd" clip-rule="evenodd" d="M235.156 25.9794C233.653 25.7326 230.021 28.1469 228.203 32.0819C227.186 34.2842 226.486 36.5216 227.653 40.1033C228.203 41.7882 229.354 41.9994 229.611 42.7541C229.936 43.7097 228.86 46.7216 228.86 46.7216L233.148 48.4534C233.427 46.3843 233.743 44.3025 235.852 43.4041C236.641 43.0676 237.485 42.8549 238.229 42.4279C240.238 41.2763 241.311 38.7573 242.136 36.6946C242.752 35.1541 238.922 26.5969 235.156 25.9794Z" fill="#FFC6B2"/>
<path fill-rule="evenodd" clip-rule="evenodd" d="M230.051 84.4582L222.867 81.5757C222.867 81.5757 201.546 121.113 201.635 132.083C201.723 143.052 230.917 165.015 230.917 165.015L235.841 160.759C235.841 160.759 226.828 145.043 222.009 139.501C217.19 133.958 230.051 84.4582 230.051 84.4582Z" fill="#FFB2A0"/>
<path fill-rule="evenodd" clip-rule="evenodd" d="M265.72 129.497C265.72 129.497 281.554 121.985 278.373 121.321C275.191 120.661 267.75 121.571 266.725 122.149C265.699 122.727 261.253 126.311 261.253 126.311L265.72 129.497Z" fill="#FFC6B2"/>
<path fill-rule="evenodd" clip-rule="evenodd" d="M237.108 84.1155L226.209 88.0806C226.209 88.0806 215.308 136.03 219.47 143.558C223.63 151.089 235.318 146.105 251.964 137.02L265.906 129.409L261.252 126.312C261.252 126.312 245.028 129.491 240.472 132.661C240.472 132.661 242.849 125.924 246.02 116.413C249.19 106.902 251.376 97.1933 237.108 84.1155Z" fill="#FFC6B2"/>
<path fill-rule="evenodd" clip-rule="evenodd" d="M223.693 51.4487C223.693 48.263 224.719 45.959 227.904 45.959C231.09 45.959 235.494 47.0757 235.494 50.2622C235.494 53.4495 232.984 58.6233 229.796 58.6233C226.611 58.6233 223.693 54.636 223.693 51.4487Z" fill="#FFC6B2"/>
<path fill-rule="evenodd" clip-rule="evenodd" d="M226.209 45.5026C226.209 45.5026 216.303 34.7819 214.321 24.2794C212.339 13.7786 208.972 -3.26196 208.972 -3.26196L205.207 -2.17783C205.207 -2.17783 203.423 21.1104 205.207 24.6763C206.99 28.2429 215.703 51.9875 218.356 58.2232L226.209 45.5026Z" fill="#FFC6B2"/>
<path fill-rule="evenodd" clip-rule="evenodd" d="M236.852 53.8581C236.852 53.8581 237.613 50.5231 250.14 45.9906C262.667 41.4588 286.3 26.769 286.3 26.769L288.658 29.4667C288.658 29.4667 275.817 44.2993 268.346 46.9009C260.876 49.5033 245.009 59.7613 243.376 60.5819C240.907 61.824 240.937 63.3867 236.852 53.8581Z" fill="#FFC6B2"/>
<path fill-rule="evenodd" clip-rule="evenodd" d="M226.209 45.5027C226.209 45.5027 216.145 48.7646 216.145 64.0798C216.145 64.0798 216.151 85.0553 218.523 88.8711C218.523 88.8711 222.379 89.8592 227.187 88.8711C232.228 87.8346 237.108 84.1156 237.108 84.1156L245.025 60.3464L244.078 49.2098L233.313 47.1313C233.313 47.1313 236.401 61.5623 225.229 55.3583C223.057 54.1527 228.423 45.9654 228.423 45.9654L226.209 45.5027Z" fill="#4DADF7"/>
<path fill-rule="evenodd" clip-rule="evenodd" d="M217.693 57.9585L212.733 47.6259C212.733 47.6259 213.444 41.3576 222.549 39.1116C222.549 39.1116 223.47 42.2711 224.479 43.4783C225.488 44.6846 228.426 45.9687 228.426 45.9687L217.693 57.9585Z" fill="#22343D"/>
<path fill-rule="evenodd" clip-rule="evenodd" d="M236.443 62.1117L252.213 58.8791C252.213 58.8791 254.956 53.1982 248.454 46.4402C248.454 46.4402 236.153 47.183 234.561 47.3156C232.993 47.4457 234.069 48.6529 234.069 48.6529L236.443 62.1117Z" fill="#22343D"/>
<path fill-rule="evenodd" clip-rule="evenodd" d="M218.498 83.7618C218.498 83.7618 203.581 111.341 201.117 116.268C201.117 116.268 245.124 136.483 262.988 112.151C262.988 112.151 252.826 90.6428 237.117 82.4547L230.34 80.4253L218.763 83.6293" fill="#4DADF7"/>
<path fill-rule="evenodd" clip-rule="evenodd" d="M241.559 36.4339C241.559 36.4339 243.258 34.7346 244.303 35.9108C245.349 37.087 240.514 38.7862 240.514 38.7862L241.559 36.4339Z" fill="#FFC6B2"/>
<path fill-rule="evenodd" clip-rule="evenodd" d="M272.639 13.2592C272.655 13.318 271.999 13.6021 270.746 13.8997C269.496 14.2005 267.641 14.4735 265.337 14.5203C263.035 14.5664 260.297 14.3616 257.3 13.9553C254.301 13.5576 251.043 12.9735 247.615 12.5997C244.193 12.2338 240.903 12.1672 237.988 12.6378C235.073 13.1005 232.55 14.0553 230.622 15.1704C228.693 16.2942 227.351 17.541 226.527 18.4847C225.699 19.4291 225.326 20.0323 225.242 19.9815C225.196 19.9577 225.445 19.2783 226.196 18.2196C226.942 17.164 228.258 15.7711 230.222 14.5116C232.184 13.26 234.791 12.1846 237.822 11.6465C240.856 11.1005 244.249 11.1426 247.731 11.5156C251.216 11.8957 254.478 12.5132 257.442 12.9608C260.405 13.4172 263.084 13.6965 265.339 13.7489C269.861 13.8751 272.597 13.0727 272.639 13.2592Z" fill="#22343D"/>
<path fill-rule="evenodd" clip-rule="evenodd" d="M232.906 35.4692C232.901 35.5358 232.417 35.5827 231.678 35.3374C231.495 35.2731 231.28 35.189 231.079 35.0049C230.98 34.9128 230.888 34.7906 230.831 34.6438C230.75 34.4382 230.757 34.2049 230.837 34.0271C230.861 33.9914 230.859 33.9065 230.906 33.9049L231.049 33.9001C231.141 33.8874 231.25 33.9176 231.357 33.9374C231.552 33.9747 231.614 33.9692 231.753 33.9787C231.997 33.9842 232.249 33.9588 232.502 33.9033C233.534 33.6858 234.224 32.935 234.533 32.3176C234.858 31.6961 234.887 31.2287 234.973 31.2342C235.034 31.2263 235.155 31.7231 234.887 32.4731C234.75 32.8406 234.513 33.262 234.13 33.6319C233.749 34.0009 233.221 34.3041 232.622 34.435C232.322 34.5017 232.022 34.5271 231.732 34.512C231.606 34.5057 231.407 34.4803 231.349 34.4676C231.296 34.4588 231.303 34.4469 231.292 34.4533C231.286 34.4596 231.283 34.47 231.284 34.485C231.305 34.5565 231.344 34.6247 231.399 34.6858C231.509 34.8104 231.669 34.9033 231.826 34.9811C232.464 35.2946 232.918 35.3874 232.906 35.4692Z" fill="#22343D"/>
<path fill-rule="evenodd" clip-rule="evenodd" d="M229.368 35.6528L235.178 37.9417C235.178 37.9417 230.072 41.4624 229.368 35.6528Z" fill="white"/>
<path fill-rule="evenodd" clip-rule="evenodd" d="M237.659 36.7543C237.453 37.1464 236.813 37.2146 236.23 36.9075C235.646 36.6011 235.341 36.0345 235.546 35.6432C235.753 35.2511 236.393 35.1821 236.977 35.4892C237.56 35.7964 237.865 36.3622 237.659 36.7543Z" fill="#FFB2A0"/>
<path fill-rule="evenodd" clip-rule="evenodd" d="M231.175 33.3164C230.998 33.7227 230.366 33.8402 229.761 33.5783C229.156 33.3164 228.808 32.7751 228.984 32.3688C229.16 31.9624 229.793 31.845 230.398 32.1069C231.002 32.3688 231.351 32.91 231.175 33.3164Z" fill="#FFB2A0"/>
<path fill-rule="evenodd" clip-rule="evenodd" d="M229.022 42.0242C229.022 42.0242 231.059 43.7297 233.184 43.1805C233.184 43.1805 232.451 44.2789 229.631 43.8758C229.631 43.8758 229.865 42.6654 229.022 42.0242Z" fill="#FFA192"/>
<path fill-rule="evenodd" clip-rule="evenodd" d="M237.101 33.1056C237.101 33.3596 236.895 33.5659 236.641 33.5659C236.387 33.5659 236.181 33.3596 236.181 33.1056C236.181 32.8516 236.387 32.6453 236.641 32.6453C236.895 32.6453 237.101 32.8516 237.101 33.1056Z" fill="#22343D"/>
<path fill-rule="evenodd" clip-rule="evenodd" d="M233.335 31.7489C233.335 32.0029 233.129 32.2092 232.875 32.2092C232.621 32.2092 232.415 32.0029 232.415 31.7489C232.415 31.4949 232.621 31.2886 232.875 31.2886C233.129 31.2886 233.335 31.4949 233.335 31.7489Z" fill="#22343D"/>
<path fill-rule="evenodd" clip-rule="evenodd" d="M238.581 31.8793C238.438 31.9397 238.164 31.6071 237.748 31.3381C237.341 31.0571 236.928 30.9309 236.929 30.777C236.915 30.6293 237.492 30.5095 238.051 30.8849C238.611 31.2579 238.723 31.8349 238.581 31.8793Z" fill="#22343D"/>
<path fill-rule="evenodd" clip-rule="evenodd" d="M231.942 29.6461C231.932 29.5025 232.426 29.3215 233.088 29.339C233.762 29.3533 234.26 29.6803 234.191 29.8168C234.127 29.9549 233.658 29.8954 233.067 29.8842C232.472 29.8668 231.951 29.8025 231.942 29.6461Z" fill="#22343D"/>
<path fill-rule="evenodd" clip-rule="evenodd" d="M234.016 171.349C234.016 171.349 236.432 179.927 238.927 179.224C241.423 178.523 239.547 166.551 239.547 166.551L237.057 162.616C237.057 162.616 239.396 182.655 234.016 171.349Z" fill="#22343D"/>
<path fill-rule="evenodd" clip-rule="evenodd" d="M264.489 123.794C264.489 123.794 266.246 121.877 268.377 121.557C270.507 121.238 278.122 120.332 279.241 121.344C280.36 122.356 273.069 125.749 273.069 125.749C273.069 125.749 275.609 124.13 274.554 123.528C272.69 122.462 264.489 123.794 264.489 123.794Z" fill="#22343D"/>
<path fill-rule="evenodd" clip-rule="evenodd" d="M261.468 126.09L263.852 130.931L265.153 130.209L261.973 125.44L261.468 126.09Z" fill="#22343D"/>
<path fill-rule="evenodd" clip-rule="evenodd" d="M234.808 158.818L228.956 164.093L230.69 165.538L235.603 160.191L234.808 158.818Z" fill="#22343D"/>
<path fill-rule="evenodd" clip-rule="evenodd" d="M112.457 106.308C110.792 102.178 110.153 97.5797 107.669 93.8836C104.096 88.5653 97.2313 85.9264 94.3314 80.2121C93.0997 77.7851 92.7132 75.0089 92.7005 72.2875C92.6766 66.9033 94.2885 61.1795 98.4472 57.758C103.226 53.8263 110.395 53.881 115.992 56.5223C121.587 59.1636 125.863 63.9581 129.498 68.966C133.133 73.9732 136.316 79.347 140.549 83.8598C143.688 87.2058 147.411 90.0915 149.775 94.0225C156.257 104.8 149.588 118.435 138.145 122.325C128.09 125.742 115.935 114.943 112.457 106.308Z" fill="#22343D"/>
<path fill-rule="evenodd" clip-rule="evenodd" d="M98.1328 182.317C99.128 183.135 98.0423 182.568 99.4899 183.511C99.1669 187.128 95.8217 189.406 95.8217 189.406C95.8217 189.406 95.6804 195.164 94.6058 195.046C93.5289 194.929 94.2185 189.501 94.2185 189.501C94.2185 189.501 92.0162 195.173 91.0845 194.812C90.1535 194.452 93.5249 187.944 93.5249 187.944C93.5249 187.944 88.7996 194.448 88.1504 193.423C87.502 192.398 91.6599 186.122 91.6599 186.122C91.6599 186.122 86.5258 191.505 85.9456 190.633C85.3663 189.764 92.0725 182.278 92.0725 182.278C88.9686 182.244 89.1885 180.132 89.1885 180.132L96.7487 180.58C96.7487 180.58 97.6749 181.939 98.1328 182.317Z" fill="#FFC6B2"/>
<path fill-rule="evenodd" clip-rule="evenodd" d="M170.357 73.7219C171.651 73.9488 170.647 73.5203 172.326 74.0084C175.083 71.5036 174.717 67.5679 174.717 67.5679C174.717 67.5679 179.341 63.8599 178.574 63.1353C177.803 62.4091 173.792 66.3163 173.792 66.3163C173.792 66.3163 177.055 61.1313 176.177 60.6646C175.301 60.1988 172.081 66.7766 172.081 66.7766C172.081 66.7766 174.45 59.1948 173.204 59.3535C171.961 59.5131 169.423 66.5282 169.423 66.5282C169.423 66.5282 170.616 59.3464 169.542 59.4599C168.468 59.5726 166.73 68.9814 166.73 68.9814C164.198 66.921 162.426 68.2401 162.426 68.2401L167.967 73.6734C167.967 73.6734 169.763 73.6187 170.357 73.7219Z" fill="#FFC6B2"/>
<path fill-rule="evenodd" clip-rule="evenodd" d="M138.708 105.168C141.047 104.803 148.179 109.425 146.364 118.812C146.213 119.6 145.183 121.335 144.927 122.052C144.603 122.961 147.126 126.287 147.126 126.287L140.613 128.368C140.335 126.401 140.802 123.525 138.698 122.671C137.91 122.351 137.068 122.148 136.325 121.743C134.319 120.648 133.249 118.252 132.425 116.291C131.81 114.825 131.341 113.248 131.359 111.658C131.402 107.653 134.949 105.756 138.708 105.168Z" fill="#FFC6B2"/>
<path fill-rule="evenodd" clip-rule="evenodd" d="M151.751 130.876C151.751 127.497 150.679 126.207 147.133 126.207C143.587 126.207 138.906 127.497 138.906 130.876C138.906 134.255 141.41 138.484 144.958 138.484C148.503 138.484 151.751 134.255 151.751 130.876Z" fill="#FFC6B2"/>
<path fill-rule="evenodd" clip-rule="evenodd" d="M148.95 124.57C148.95 124.57 159.976 113.201 162.182 102.065C164.388 90.9291 168.136 72.8591 168.136 72.8591L172.326 74.0083C172.326 74.0083 174.312 98.7037 172.326 102.485C170.342 106.268 159.094 132.532 159.314 139.255L148.95 124.57Z" fill="#FFC6B2"/>
<path fill-rule="evenodd" clip-rule="evenodd" d="M129.295 130.074C129.295 130.074 125.546 130.704 119.812 143.732C114.078 156.759 96.4355 181.012 96.4355 181.012L99.303 183.652C99.303 183.652 116.504 170.836 119.812 163.062C123.119 155.289 127.31 145.623 129.295 146.043C131.28 146.464 139.66 134.906 129.295 130.074Z" fill="#FFC6B2"/>
<path fill-rule="evenodd" clip-rule="evenodd" d="M158.815 140.992L163.949 126.822C163.949 126.822 163.157 120.176 153.024 117.793L147.283 126.064L158.815 140.992Z" fill="#22343D"/>
<path fill-rule="evenodd" clip-rule="evenodd" d="M131.008 128.987C131.008 128.987 124.95 129.497 120.041 140.281C120.041 140.281 125.44 147.735 129.39 147.986C129.39 147.986 144.061 135.446 131.008 128.987Z" fill="#22343D"/>
<path fill-rule="evenodd" clip-rule="evenodd" d="M147.65 256.866C147.65 256.866 138.906 274.721 137.884 271.415C136.863 268.108 137.201 260.167 137.748 259.033C138.298 257.899 141.873 252.891 141.873 252.891L147.65 256.866Z" fill="#FFC6B2"/>
<path fill-rule="evenodd" clip-rule="evenodd" d="M148.318 171.98L156.314 168.923C156.314 168.923 180.044 210.851 179.946 222.483C179.847 234.114 147.354 257.405 147.354 257.405L141.873 252.891C141.873 252.891 157.274 230.247 162.637 224.37C165.319 221.432 146.121 207.03 143.213 193.173C140.305 179.315 148.318 171.98 148.318 171.98Z" fill="#22343D"/>
<path fill-rule="evenodd" clip-rule="evenodd" d="M100.243 247.512C100.243 247.512 83.8874 259.568 84.5675 256.185C85.25 252.798 89.3675 245.887 90.4 245.118C91.4341 244.351 97.0181 241.458 97.0181 241.458L100.243 247.512Z" fill="#FFC6B2"/>
<path fill-rule="evenodd" clip-rule="evenodd" d="M126.563 186.827L150.22 173.117C150.22 173.117 151.159 220.743 145.48 231.04C139.801 241.338 99.7199 247.862 99.7199 247.862L97.0176 241.459C97.0176 241.459 121.746 226.725 129.338 223.842C136.931 220.957 126.563 186.827 126.563 186.827Z" fill="#22343D"/>
<path fill-rule="evenodd" clip-rule="evenodd" d="M140.652 163.739C140.652 163.739 123.234 169.906 126.564 186.828C129.893 203.748 135.443 206.92 135.443 206.92L145.433 190.529L155.462 169.063L145.433 167.791L140.652 163.739Z" fill="#22343D"/>
<path fill-rule="evenodd" clip-rule="evenodd" d="M148.95 124.57C148.95 124.57 161.775 131.757 161.775 147.997C161.775 147.997 160.145 166.513 157.505 170.558C157.505 170.558 153.213 171.606 147.861 170.558C142.25 169.459 136.82 165.516 136.82 165.516L132.438 142.847L129.028 129.612L130.877 129.002L140.522 127.943C140.522 127.943 139.136 142.351 149.906 135.196C152.174 133.689 147.082 126.176 147.082 126.176L148.95 124.57Z" fill="#F03E3D"/>
<path fill-rule="evenodd" clip-rule="evenodd" d="M156.8 63.1991L183.688 78.8849L198.814 50.3149L173.605 36.3101L156.8 63.1991Z" fill="#F03E3D"/>
<path fill-rule="evenodd" clip-rule="evenodd" d="M194.207 199.961L213.438 188.056L197.55 160.323L179.971 171.723L194.207 199.961Z" fill="#02897A"/>
<path fill-rule="evenodd" clip-rule="evenodd" d="M110.564 42.8264L120.27 36.8787L112.251 23.0234L103.379 28.7185L110.564 42.8264Z" fill="#740A76"/>
<path fill-rule="evenodd" clip-rule="evenodd" d="M99.5199 81.7858C99.5707 81.7406 100.164 82.2795 101.103 83.3787C102.038 84.4795 103.314 86.1533 104.594 88.4121C105.879 90.6613 107.15 93.5153 108.058 96.828C108.998 100.116 109.628 103.812 111.072 107.372C111.822 109.131 112.731 110.769 113.813 112.216C114.904 113.654 116.114 114.916 117.36 116.017C119.906 118.16 122.574 119.634 124.951 120.485C127.325 121.349 129.359 121.736 130.773 121.875C132.186 122.031 132.985 122.054 132.985 122.147C132.989 122.205 132.193 122.326 130.743 122.299C129.293 122.288 127.182 122.011 124.697 121.214C122.209 120.428 119.399 118.974 116.712 116.784C115.394 115.659 114.113 114.356 112.959 112.858C111.814 111.352 110.848 109.63 110.063 107.786C108.558 104.065 107.963 100.336 107.088 97.0915C106.252 93.8359 105.091 91.0343 103.916 88.7803C102.748 86.52 101.59 84.8065 100.768 83.6382C99.9422 82.4723 99.458 81.8406 99.5199 81.7858Z" fill="#22343D"/>
<path fill-rule="evenodd" clip-rule="evenodd" d="M132.555 63.4346C132.753 63.4044 132.945 66.0513 134.426 69.9664C135.166 71.9164 136.266 74.16 137.846 76.4092C138.636 77.5354 139.544 78.645 140.573 79.7505C141.594 80.8609 142.707 81.9886 143.758 83.2537C145.867 85.8069 147.318 88.5664 148.684 91.0022C150.04 93.4617 151.12 95.8014 151.669 97.8943C152.242 99.9808 152.276 101.777 152.094 102.968C151.904 104.165 151.607 104.771 151.558 104.755C151.463 104.73 151.617 104.09 151.671 102.93C151.718 101.772 151.57 100.085 150.93 98.1125C150.311 96.1324 149.197 93.9006 147.808 91.4934C146.397 89.0871 144.933 86.3831 142.919 83.9498C141.908 82.7323 140.811 81.6085 139.783 80.4704C138.75 79.3378 137.81 78.1585 137.017 76.9783C135.427 74.6156 134.365 72.2608 133.7 70.2251C133.02 68.1902 132.73 66.4727 132.593 65.2894C132.457 64.1036 132.494 63.4401 132.555 63.4346Z" fill="#22343D"/>
<path fill-rule="evenodd" clip-rule="evenodd" d="M140.799 115.371C140.789 115.295 141.227 115.225 141.64 114.739C141.736 114.627 141.832 114.464 141.83 114.369C141.828 114.266 141.756 114.088 141.633 113.986C141.505 113.872 141.363 113.816 141.176 113.835C140.982 113.85 140.747 113.946 140.439 113.992C139.764 114.081 139.238 113.7 138.892 113.392C138.536 113.067 138.265 112.738 138.063 112.442C137.66 111.848 137.534 111.419 137.596 111.387C137.667 111.349 137.91 111.704 138.365 112.203C138.592 112.45 138.879 112.734 139.217 113.008C139.55 113.274 139.958 113.516 140.365 113.452C140.581 113.424 140.832 113.323 141.139 113.303C141.451 113.272 141.798 113.415 141.988 113.63C142.19 113.849 142.304 114.107 142.28 114.412C142.22 114.725 142.054 114.871 141.917 115.007C141.324 115.527 140.78 115.442 140.799 115.371Z" fill="#22343D"/>
<path fill-rule="evenodd" clip-rule="evenodd" d="M143.977 115.818L138.812 117.696C138.812 117.696 143.194 121.529 143.977 115.818Z" fill="white"/>
<path fill-rule="evenodd" clip-rule="evenodd" d="M138.297 115.498C138.504 115.89 138.198 116.457 137.615 116.764C137.032 117.071 136.392 117.002 136.186 116.61C135.979 116.219 136.285 115.652 136.868 115.345C137.451 115.038 138.091 115.106 138.297 115.498Z" fill="#FFB2A0"/>
<path fill-rule="evenodd" clip-rule="evenodd" d="M144.419 112.359C144.588 112.769 144.231 113.304 143.622 113.555C143.013 113.808 142.382 113.68 142.213 113.27C142.044 112.861 142.401 112.326 143.01 112.074C143.619 111.823 144.25 111.95 144.419 112.359Z" fill="#FFB2A0"/>
<path fill-rule="evenodd" clip-rule="evenodd" d="M138.965 122.808C138.965 122.808 140.693 123.16 142.895 122.61C142.895 122.61 141.809 123.664 140.035 123.91C140.035 123.91 139.638 123.175 138.965 122.808Z" fill="#FFA192"/>
<path fill-rule="evenodd" clip-rule="evenodd" d="M140.731 111.2C140.925 111.364 140.949 111.654 140.784 111.848C140.62 112.042 140.33 112.065 140.136 111.901C139.942 111.738 139.919 111.447 140.083 111.253C140.247 111.059 140.538 111.035 140.731 111.2Z" fill="#22343D"/>
<path fill-rule="evenodd" clip-rule="evenodd" d="M137.261 113.196C137.454 113.36 137.478 113.651 137.314 113.845C137.15 114.038 136.86 114.062 136.665 113.898C136.472 113.733 136.448 113.444 136.612 113.249C136.776 113.056 137.067 113.032 137.261 113.196Z" fill="#22343D"/>
<path fill-rule="evenodd" clip-rule="evenodd" d="M140.751 109.279C140.705 109.426 140.274 109.421 139.8 109.564C139.322 109.693 138.96 109.926 138.842 109.825C138.721 109.741 139.002 109.224 139.65 109.04C140.297 108.853 140.809 109.142 140.751 109.279Z" fill="#22343D"/>
<path fill-rule="evenodd" clip-rule="evenodd" d="M134.756 112.899C134.64 112.814 134.822 112.32 135.263 111.826C135.709 111.321 136.28 111.153 136.34 111.294C136.404 111.431 136.056 111.751 135.665 112.195C135.268 112.637 134.881 112.994 134.756 112.899Z" fill="#22343D"/>
<path fill-rule="evenodd" clip-rule="evenodd" d="M132.809 116.734C132.809 116.734 131.152 115.343 130.357 116.601C129.563 117.86 133.935 118.523 133.935 118.523L132.809 116.734Z" fill="#FFC6B2"/>
<path fill-rule="evenodd" clip-rule="evenodd" d="M92.982 243.595C92.982 243.595 90.6075 244.627 89.9884 245.247C89.3686 245.866 83.6901 255.674 84.4131 256.913C85.1361 258.152 90.8305 253.946 90.8305 253.946C90.8305 253.946 86.0655 254.849 92.982 243.595Z" fill="#22343D"/>
</g>
<defs>
<clipPath id="clip0_0_1">
<rect width="411" height="5986" fill="white" transform="translate(-60 -2698)"/>
</clipPath>
</defs>
</svg>
